<svg width="49" height="77" viewBox="0 0 49 77" fill="none" xmlns="http://www.w3.org/2000/svg">
<path fill-rule="evenodd" clip-rule="evenodd" d="M24.8466 9.23384H25.0245C25.3814 9.21075 25.7154 9.04976 25.9557 8.7849C26.1961 8.52005 26.324 8.17209 26.3125 7.81462C26.3009 7.45715 26.1508 7.11818 25.8938 6.8694C25.6369 6.62061 25.2932 6.48151 24.9356 6.48151C24.5779 6.48151 24.2343 6.62061 23.9773 6.8694C23.7204 7.11818 23.5703 7.45715 23.5587 7.81462C23.5472 8.17209 23.6751 8.52005 23.9154 8.7849C24.1558 9.04976 24.4897 9.21075 24.8466 9.23384V9.23384ZM24.1974 10.614V16.7866H18.7922V18.2616H24.1974V26.6H10.55V28.0762H24.1974V48.8831L18.7922 46.9355V48.5053L24.1974 50.4529V66.4336H25.6737V50.9826L31.079 52.9302V51.3618L25.6737 49.4141V28.0762H39.3277V26.6H25.6737V18.2616H31.079V16.7866H25.6737V10.614H24.1974ZM24.9349 76.0677C23.6804 76.0675 22.4497 75.7253 21.375 75.078C20.3004 74.4307 19.4225 73.5027 18.8357 72.3939C18.2489 71.2851 17.9754 70.0373 18.0446 68.7846C18.1138 67.532 18.5231 66.3219 19.2285 65.2845C18.0807 61.8489 17.3315 57.276 17.2276 52.2174L14.9502 51.3981V41.2706L17.8794 42.3262C18.1411 40.6787 18.512 39.0503 18.9896 37.452C16.8885 36.2134 15.2236 34.3534 14.2244 32.1285H12.6858L12.5936 32.222C11.6284 33.1875 10.3985 33.8451 9.05958 34.1115C7.72061 34.378 6.3327 34.2414 5.07137 33.719C3.81004 33.1967 2.73194 32.312 1.97343 31.1769C1.21492 30.0418 0.810059 28.7072 0.810059 27.342C0.810059 25.9768 1.21492 24.6422 1.97343 23.5071C2.73194 22.372 3.81004 21.4873 5.07137 20.9649C6.3327 20.4426 7.72061 20.306 9.05958 20.5724C10.3985 20.8389 11.6284 21.4965 12.5936 22.4619C12.6248 22.4918 12.656 22.5243 12.6858 22.5554H14.2205C14.2777 22.4256 14.3361 22.2958 14.3984 22.1763C13.7339 21.9877 13.1175 21.6588 12.5908 21.2117C12.0642 20.7646 11.6395 20.2098 11.3455 19.5847C11.0515 18.9596 10.895 18.2787 10.8865 17.5879C10.878 16.8971 11.0177 16.2126 11.2963 15.5804C11.5748 14.9483 11.9857 14.3832 12.5012 13.9233C13.0167 13.4634 13.6248 13.1194 14.2845 12.9145C14.9443 12.7097 15.6403 12.6486 16.3256 12.7356C17.0109 12.8225 17.6696 13.0554 18.2573 13.4186C18.5789 12.9002 18.9598 12.4209 19.3921 11.9903V11.9903C18.6285 10.9637 18.1653 9.74499 18.0542 8.47033C17.9431 7.19566 18.1885 5.9152 18.763 4.77193C19.3375 3.62866 20.2184 2.66757 21.3075 1.99598C22.3966 1.3244 23.6509 0.96875 24.9304 0.96875C26.2099 0.96875 27.4642 1.3244 28.5533 1.99598C29.6424 2.66757 30.5233 3.62866 31.0978 4.77193C31.6723 5.9152 31.9177 7.19566 31.8066 8.47033C31.6955 9.74499 31.2323 10.9637 30.4687 11.9903C30.9007 12.4211 31.2815 12.9004 31.6035 13.4186C32.1906 13.0564 32.8484 12.8241 33.5327 12.7373C34.217 12.6505 34.912 12.7113 35.5709 12.9155C36.2298 13.1197 36.8373 13.4627 37.3526 13.9213C37.8679 14.3799 38.279 14.9436 38.5582 15.5743C38.8375 16.2051 38.9784 16.8883 38.9716 17.5781C38.9648 18.2679 38.8103 18.9482 38.5186 19.5733C38.2269 20.1984 37.8047 20.7538 37.2805 21.2021C36.7562 21.6504 36.142 21.9813 35.4792 22.1724C35.5416 22.3022 35.6 22.4243 35.6571 22.5515H37.1243C37.1555 22.5204 37.1853 22.4879 37.2165 22.4581C38.1817 21.4926 39.4116 20.835 40.7506 20.5685C42.0895 20.3021 43.4774 20.4387 44.7388 20.961C46.0001 21.4834 47.0782 22.3681 47.8367 23.5032C48.5952 24.6383 49.0001 25.9729 49.0001 27.3381C49.0001 28.7033 48.5952 30.0379 47.8367 31.173C47.0782 32.3081 46.0001 33.1928 44.7388 33.7152C43.4774 34.2375 42.0895 34.3741 40.7506 34.1076C39.4116 33.8412 38.1817 33.1836 37.2165 32.2181L37.1243 32.1246H35.6571C34.6573 34.3495 32.992 36.2095 30.8907 37.4481C31.7502 40.2708 32.3449 43.7648 32.5669 47.6133L34.9209 48.4754V58.5899L32.2748 57.6369C31.9307 60.522 31.3659 63.1253 30.6427 65.2845C31.3484 66.3224 31.7577 67.5331 31.8267 68.7863C31.8956 70.0395 31.6216 71.2877 31.034 72.3968C30.4464 73.5058 29.5676 74.4337 28.492 75.0805C27.4164 75.7273 26.1848 76.0686 24.9297 76.0677H24.9349ZM21.5292 63.1616V53.7664L22.8172 54.2312V62.5955C22.3697 62.7397 21.9381 62.9294 21.5292 63.1616V63.1616ZM27.0539 62.5955V55.7568L28.3419 56.2204V63.1616C27.9331 62.9294 27.5015 62.7397 27.0539 62.5955V62.5955ZM21.0306 73.0697C20.1726 72.2109 19.6213 71.0934 19.4619 69.89C19.3026 68.6865 19.544 67.464 20.149 66.4115V68.5058C20.0553 69.1894 20.109 69.885 20.3067 70.546C20.5043 71.207 20.8411 71.818 21.2946 72.338C21.7481 72.8579 22.3077 73.2746 22.9357 73.5602C23.5638 73.8458 24.2457 73.9936 24.9356 73.9936C25.6255 73.9936 26.3074 73.8458 26.9354 73.5602C27.5635 73.2746 28.1231 72.8579 28.5765 72.338C29.03 71.818 29.3669 71.207 29.5645 70.546C29.7621 69.885 29.8159 69.1894 29.7221 68.5058V66.4115C30.3899 67.5722 30.6132 68.9359 30.3504 70.2489C30.0877 71.5619 29.3568 72.7347 28.2938 73.549C27.2309 74.3633 25.9082 74.7636 24.5721 74.6755C23.236 74.5873 21.9774 74.0166 21.0306 73.0697V73.0697ZM28.338 64.8197V65.7441C27.9618 65.3697 27.5267 65.0596 27.05 64.8262V64.0692C27.5115 64.2613 27.9448 64.5151 28.338 64.8236V64.8197ZM22.8134 64.0653V64.8223C22.3367 65.0557 21.9015 65.3658 21.5253 65.7402V64.8197C21.9186 64.5112 22.3519 64.2574 22.8134 64.0653V64.0653ZM30.9374 57.1565C30.7066 59.3353 30.2989 61.4917 29.7182 63.6044V56.7228L30.9374 57.1617V57.1565ZM20.1451 53.2704V63.6057C19.2895 60.5934 18.7338 56.8371 18.6117 52.7173L20.1451 53.2704V53.2704ZM19.1934 42.8053C19.4206 41.3107 19.7385 39.8312 20.1451 38.3751V43.152L19.1934 42.8092V42.8053ZM21.5305 43.6454V38.5686C21.9536 38.6967 22.3837 38.8007 22.8185 38.8802V44.1089L21.5305 43.6454V43.6454ZM27.0552 45.6345V38.8828C27.49 38.803 27.92 38.699 28.3432 38.5712V46.1019L27.0552 45.6371V45.6345ZM29.7234 46.5966V38.3738C30.4272 40.8512 30.9271 43.8349 31.1517 47.1108L29.7234 46.5914V46.5966ZM33.542 56.6255L29.7234 55.2505L28.338 54.7532L27.05 54.2896V52.9471L32.4553 54.8947V50.3918L27.05 48.4442V47.1017L33.542 49.4388V56.6255V56.6255ZM22.8172 52.7601L20.7567 52.0174L20.149 51.7993L16.3304 50.423V43.2403L20.7567 44.8399L21.5292 45.1177L22.8172 45.5813V46.9173L17.412 44.9697V49.4752L22.8172 51.4228V52.7601ZM22.4952 71.6064C22.8157 71.9269 23.1962 72.1811 23.6149 72.3545C24.0336 72.528 24.4824 72.6172 24.9356 72.6172C25.3888 72.6172 25.8376 72.528 26.2563 72.3545C26.675 72.1811 27.0555 71.9269 27.3759 71.6064C27.6964 71.2859 27.9506 70.9055 28.124 70.4868C28.2975 70.0681 28.3868 69.6193 28.3868 69.1661C28.3868 68.7129 28.2975 68.2641 28.124 67.8454C27.9506 67.4267 27.6964 67.0462 27.3759 66.7257C27.2745 66.6245 27.1669 66.5295 27.0539 66.4414V67.3957C27.391 67.7987 27.6061 68.2894 27.6741 68.8103C27.742 69.3312 27.66 69.8607 27.4376 70.3367C27.2152 70.8126 26.8617 71.2153 26.4185 71.4974C25.9754 71.7795 25.4609 71.9293 24.9356 71.9293C24.4102 71.9293 23.8958 71.7795 23.4526 71.4974C23.0095 71.2153 22.6559 70.8126 22.4335 70.3367C22.2112 69.8607 22.1291 69.3312 22.1971 68.8103C22.2651 68.2894 22.4802 67.7987 22.8172 67.3957V66.4414C22.7042 66.5295 22.5967 66.6245 22.4952 66.7257C21.8483 67.3731 21.4849 68.2509 21.4849 69.1661C21.4849 70.0813 21.8483 70.959 22.4952 71.6064V71.6064ZM25.9113 68.1903C25.7186 67.9967 25.4726 67.8646 25.2047 67.8109C24.9368 67.7571 24.659 67.7841 24.4065 67.8884C24.1539 67.9927 23.938 68.1696 23.7861 68.3967C23.6341 68.6238 23.553 68.8909 23.553 69.1641C23.553 69.4374 23.6341 69.7044 23.7861 69.9316C23.938 70.1587 24.1539 70.3356 24.4065 70.4398C24.659 70.5441 24.9368 70.5711 25.2047 70.5174C25.4726 70.4636 25.7186 70.3316 25.9113 70.1379C26.1682 69.8789 26.3124 69.5289 26.3124 69.1641C26.3124 68.7993 26.1682 68.4493 25.9113 68.1903V68.1903ZM8.45823 22.5515H10.4682C9.62857 22.0685 8.67671 21.8149 7.70811 21.816C6.7395 21.8171 5.78823 22.073 4.94977 22.558C4.11131 23.0429 3.41516 23.7399 2.93118 24.5789C2.44721 25.4179 2.19243 26.3695 2.19243 27.3381C2.19243 28.3067 2.44721 29.2583 2.93118 30.0973C3.41516 30.9363 4.11131 31.6333 4.94977 32.1182C5.78823 32.6032 6.7395 32.8591 7.70811 32.8602C8.67671 32.8613 9.62857 32.6076 10.4682 32.1246H8.45823C8.23915 32.1539 8.01837 32.1686 7.79735 32.1688C7.13497 32.1688 6.47965 32.0326 5.87212 31.7687C5.26459 31.5048 4.71781 31.1188 4.26577 30.6346C3.81372 30.1505 3.46606 29.5785 3.24438 28.9543C3.02271 28.3301 2.93175 27.667 2.97716 27.0062C3.02257 26.3454 3.20338 25.701 3.50836 25.113C3.81333 24.525 4.23596 24.006 4.74999 23.5882C5.26401 23.1704 5.85845 22.8628 6.49638 22.6845C7.1343 22.5062 7.80208 22.4609 8.45823 22.5515V22.5515ZM12.06 23.9356H13.7051C13.5764 24.3586 13.4723 24.7886 13.3935 25.2236H12.1405C11.908 24.7467 11.5983 24.3115 11.2238 23.9356H12.06ZM11.2238 30.7483C11.598 30.3722 11.9077 29.937 12.1405 29.4603H13.3935C13.4732 29.8951 13.5773 30.3251 13.7051 30.7483H11.2238ZM39.3355 22.5554H41.4298C42.086 22.4648 42.7538 22.5101 43.3917 22.6884C44.0296 22.8667 44.624 23.1743 45.1381 23.5921C45.6521 24.0099 46.0747 24.5289 46.3797 25.1169C46.6847 25.7049 46.8655 26.3493 46.9109 27.0101C46.9563 27.6709 46.8653 28.334 46.6437 28.9582C46.422 29.5824 46.0743 30.1544 45.6223 30.6385C45.1702 31.1227 44.6235 31.5087 44.0159 31.7726C43.4084 32.0365 42.7531 32.1727 42.0907 32.1727C41.8697 32.1725 41.6489 32.1578 41.4298 32.1285H39.3355C40.1751 32.6115 41.1269 32.8652 42.0955 32.8641C43.0642 32.863 44.0154 32.6071 44.8539 32.1221C45.6923 31.6372 46.3885 30.9402 46.8725 30.1012C47.3564 29.2622 47.6112 28.3106 47.6112 27.342C47.6112 26.3734 47.3564 25.4218 46.8725 24.5828C46.3885 23.7438 45.6923 23.0468 44.8539 22.5619C44.0154 22.0769 43.0642 21.821 42.0955 21.8199C41.1269 21.8188 40.1751 22.0724 39.3355 22.5554V22.5554ZM38.6642 23.9356C38.2898 24.3115 37.9801 24.7467 37.7476 25.2236H36.4777C36.3982 24.7888 36.2942 24.3587 36.1661 23.9356H38.6642V23.9356ZM37.7437 30.7483H36.1661C36.2939 30.3251 36.3979 29.8951 36.4777 29.4603H37.7476C37.9804 29.937 38.2901 30.3722 38.6642 30.7483H37.7437ZM7.79735 30.0991C7.35344 30.0994 6.91602 29.9927 6.52213 29.788C6.12825 29.5832 5.78951 29.2866 5.53463 28.9232C5.27974 28.5597 5.11622 28.1402 5.05792 27.7002C4.99962 27.2601 5.04826 26.8125 5.19971 26.3952C5.35116 25.9779 5.60096 25.6033 5.92795 25.3031C6.25494 25.0029 6.64948 24.7859 7.07814 24.6706C7.5068 24.5553 7.95694 24.5449 8.39043 24.6405C8.82392 24.7361 9.22798 24.9348 9.56837 25.2198H10.5227C10.4345 25.1067 10.3396 24.9992 10.2383 24.8977C9.75569 24.4151 9.14075 24.0864 8.4713 23.9533C7.80184 23.8201 7.10793 23.8884 6.47732 24.1497C5.84671 24.4109 5.30771 24.8532 4.9285 25.4207C4.54928 25.9883 4.34688 26.6555 4.34688 27.3381C4.34688 28.0207 4.54928 28.6879 4.9285 29.2554C5.30771 29.823 5.84671 30.2653 6.47732 30.5265C7.10793 30.7877 7.80184 30.8561 8.4713 30.7229C9.14075 30.5898 9.75569 30.2611 10.2383 29.7784C10.3396 29.677 10.4345 29.5694 10.5227 29.4564H9.56837C9.07212 29.8725 8.44495 30.1001 7.79735 30.0991V30.0991ZM6.82225 28.3138C7.00279 28.4934 7.22946 28.6195 7.47721 28.6782C7.72495 28.7369 7.9841 28.7259 8.226 28.6465C8.4679 28.5671 8.68311 28.4223 8.84784 28.2281C9.01257 28.034 9.12039 27.7981 9.15937 27.5465V27.1297C9.12701 26.9136 9.04379 26.7082 8.91656 26.5306C8.78934 26.3529 8.62174 26.208 8.42756 26.1077C8.23339 26.0075 8.01818 25.9547 7.79965 25.9539C7.58113 25.9531 7.36552 26.0041 7.17059 26.1029C6.97565 26.2017 6.80696 26.3453 6.67838 26.522C6.5498 26.6987 6.46502 26.9034 6.43101 27.1193C6.397 27.3352 6.41473 27.556 6.48275 27.7637C6.55077 27.9714 6.66713 28.1599 6.82225 28.3138V28.3138ZM42.0907 30.0991C41.4431 30.1001 40.8159 29.8725 40.3197 29.4564H39.3654C39.4535 29.5694 39.5485 29.677 39.6497 29.7784C40.1324 30.2615 40.7476 30.5906 41.4174 30.724C42.0872 30.8574 42.7815 30.7892 43.4125 30.528C44.0435 30.2667 44.5828 29.8242 44.9623 29.2564C45.3418 28.6886 45.5443 28.021 45.5443 27.3381C45.5443 26.6552 45.3418 25.9876 44.9623 25.4197C44.5828 24.8519 44.0435 24.4094 43.4125 24.1482C42.7815 23.887 42.0872 23.8187 41.4174 23.9522C40.7476 24.0856 40.1324 24.4147 39.6497 24.8977C39.5485 24.9992 39.4535 25.1067 39.3654 25.2198H40.3197C40.6601 24.9356 41.0639 24.7376 41.4969 24.6425C41.93 24.5475 42.3796 24.5581 42.8077 24.6736C43.2358 24.7891 43.6298 25.006 43.9563 25.306C44.2828 25.6059 44.5323 25.9802 44.6835 26.3969C44.8348 26.8137 44.8835 27.2608 44.8254 27.7004C44.7673 28.14 44.6042 28.5591 44.3498 28.9223C44.0955 29.2854 43.7574 29.582 43.3641 29.7869C42.9709 29.9917 42.5341 30.0988 42.0907 30.0991V30.0991ZM41.1143 28.3138C41.3403 28.5404 41.6379 28.6816 41.9563 28.7133C42.2747 28.745 42.5943 28.6652 42.8605 28.4877C43.1267 28.3102 43.3232 28.0458 43.4163 27.7396C43.5094 27.4335 43.4934 27.1045 43.3711 26.8088C43.2488 26.5131 43.0278 26.269 42.7456 26.118C42.4635 25.967 42.1377 25.9186 41.8238 25.981C41.51 26.0433 41.2274 26.2126 41.0244 26.46C40.8214 26.7073 40.7105 27.0174 40.7105 27.3374C40.7102 27.5188 40.7457 27.6984 40.815 27.8659C40.8843 28.0335 40.986 28.1857 41.1143 28.3138V28.3138ZM15.8604 22.3529C16.5403 22.3346 17.2086 22.1722 17.821 21.8764C17.0599 22.8669 16.5145 24.0058 16.2201 25.2198H14.8048C15.0136 24.2166 15.3712 23.2503 15.8656 22.3529H15.8604ZM14.7996 29.4564H16.2149C16.6046 31.0563 17.4265 32.5184 18.5909 33.6828C19.7553 34.8471 21.2173 35.6691 22.8172 36.0588V37.4728C20.8466 37.0598 19.0389 36.0818 17.6151 34.6582C16.1912 33.2346 15.2129 31.427 14.7996 29.4564V29.4564ZM27.0539 37.4728V36.0588C28.6548 35.6699 30.1179 34.8484 31.2833 33.6839C32.4486 32.5195 33.2714 31.057 33.6615 29.4564H35.0767C34.6635 31.427 33.6852 33.2346 32.2613 34.6582C30.8375 36.0818 29.0298 37.0598 27.0591 37.4728H27.0539ZM35.0715 25.2198H33.6615C33.3673 24.0057 32.8219 22.8667 32.0606 21.8764C32.6712 22.1719 33.3378 22.3344 34.016 22.3529C34.5104 23.2503 34.8679 24.2166 35.0767 25.2198H35.0715ZM18.9818 22.623C19.1116 22.7762 19.2492 22.9229 19.3921 23.0657C19.5778 23.2516 19.7728 23.428 19.9763 23.5942C19.603 24.0881 19.3059 24.6351 19.0947 25.2172H17.6431C17.917 24.273 18.3716 23.3911 18.9818 22.6204V22.623ZM17.6431 29.4538H19.0947C19.406 30.3083 19.9006 31.0844 20.5436 31.7274C21.1867 32.3705 21.9627 32.865 22.8172 33.1764V34.628C21.5894 34.2699 20.4717 33.6081 19.5673 32.7037C18.663 31.7994 18.0012 30.6816 17.6431 29.4538V29.4538ZM27.0539 34.628V33.1789C27.9084 32.8676 28.6845 32.3731 29.3275 31.73C29.9706 31.087 30.4651 30.3109 30.7764 29.4564H32.2332C31.8752 30.6842 31.2134 31.802 30.309 32.7063C29.4047 33.6107 28.2869 34.2725 27.0591 34.6306L27.0539 34.628ZM32.2332 25.2198H30.7764C30.5653 24.6377 30.2681 24.0907 29.8948 23.5968C30.0984 23.4306 30.2934 23.2542 30.4791 23.0683C30.6219 22.9255 30.7583 22.7788 30.8894 22.6255C31.4996 23.3963 31.9542 24.2782 32.2281 25.2223L32.2332 25.2198ZM20.4581 11.0815C19.8635 10.2568 19.5082 9.28394 19.4313 8.2702C19.3543 7.25645 19.5587 6.24115 20.022 5.33615C20.4852 4.43116 21.1893 3.67162 22.0566 3.14122C22.924 2.61082 23.9209 2.33016 24.9375 2.33016C25.9542 2.33016 26.9511 2.61082 27.8185 3.14122C28.6858 3.67162 29.3899 4.43116 29.8531 5.33615C30.3163 6.24115 30.5207 7.25645 30.4438 8.2702C30.3668 9.28394 30.0115 10.2568 29.417 11.0815C29.2274 10.9499 29.0327 10.8265 28.8327 10.7114C29.361 9.9915 29.6794 9.13926 29.7526 8.24932C29.8258 7.35938 29.651 6.46657 29.2475 5.66999C28.8439 4.87342 28.2276 4.20426 27.4668 3.7368C26.706 3.26934 25.8305 3.02187 24.9375 3.02187C24.0446 3.02187 23.1691 3.26934 22.4083 3.7368C21.6475 4.20426 21.0311 4.87342 20.6276 5.66999C20.2241 6.46657 20.0492 7.35938 20.1225 8.24932C20.1957 9.13926 20.5141 9.9915 21.0423 10.7114C20.8424 10.827 20.6463 10.9503 20.4581 11.0815ZM22.3355 10.1194C21.8988 9.62042 21.615 9.00624 21.5182 8.35027C21.4214 7.69431 21.5155 7.02433 21.7895 6.42048C22.0634 5.81663 22.5055 5.30448 23.0629 4.9453C23.6202 4.58611 24.2693 4.39509 24.9323 4.39509C25.5954 4.39509 26.2445 4.58611 26.8018 4.9453C27.3592 5.30448 27.8013 5.81663 28.0752 6.42048C28.3491 7.02433 28.4433 7.69431 28.3465 8.35027C28.2496 9.00624 27.9659 9.62042 27.5291 10.1194C27.3707 10.0635 27.2097 10.0142 27.0474 9.96744V9.62596C27.3845 9.223 27.5996 8.73227 27.6676 8.21135C27.7355 7.69042 27.6535 7.16092 27.4311 6.68498C27.2087 6.20903 26.8552 5.80639 26.412 5.5243C25.9689 5.24221 25.4544 5.09237 24.9291 5.09237C24.4038 5.09237 23.8893 5.24221 23.4461 5.5243C23.003 5.80639 22.6494 6.20903 22.4271 6.68498C22.2047 7.16092 22.1226 7.69042 22.1906 8.21135C22.2586 8.73227 22.4737 9.223 22.8108 9.62596V9.97263C22.6485 10.0194 22.4875 10.0687 22.329 10.1245L22.3355 10.1194ZM28.9431 22.584C28.692 22.3719 28.4246 22.18 28.1433 22.0101C28.3909 21.8328 28.6236 21.6357 28.8392 21.4206C29.3513 20.9091 29.758 20.3021 30.0364 19.634H31.04C30.7211 20.5586 30.1968 21.399 29.5066 22.0919C29.329 22.2687 29.1417 22.4356 28.9457 22.5918L28.9431 22.584ZM31.04 15.3974H30.0364C29.4736 14.0471 28.4003 12.9737 27.05 12.411V11.4191C27.9719 11.7402 28.8092 12.2655 29.4994 12.9558C30.1897 13.646 30.715 14.4833 31.0361 15.4051L31.04 15.3974ZM22.8172 11.4191V12.424C21.467 12.9867 20.3936 14.0601 19.8309 15.4103H18.8273C19.1484 14.4885 19.6737 13.6512 20.364 12.961C21.0542 12.2707 21.8915 11.7454 22.8134 11.4242L22.8172 11.4191ZM18.8312 19.6418H19.8348C20.1132 20.3099 20.5199 20.9169 21.0319 21.4284C21.2471 21.6435 21.4794 21.8406 21.7266 22.0179C21.4459 22.1881 21.1789 22.38 20.9281 22.5918C20.7321 22.4356 20.5448 22.2687 20.3672 22.0919C19.6766 21.4018 19.1514 20.5641 18.8312 19.6418ZM17.6366 20.3923C17.117 20.7398 16.5128 20.9396 15.8885 20.9704C15.2642 21.0013 14.6432 20.862 14.0919 20.5674C13.5406 20.2729 13.0796 19.8341 12.7582 19.298C12.4368 18.7619 12.2671 18.1486 12.2671 17.5235C12.2671 16.8984 12.4368 16.2851 12.7582 15.749C13.0796 15.2129 13.5406 14.7741 14.0919 14.4795C14.6432 14.185 15.2642 14.0457 15.8885 14.0765C16.5128 14.1074 17.117 14.3072 17.6366 14.6547C17.5501 14.878 17.4726 15.1056 17.4042 15.3376C16.9957 15.0221 16.5069 14.8275 15.9933 14.7757C15.4797 14.7239 14.9619 14.8171 14.4986 15.0447C14.0353 15.2723 13.6451 15.6252 13.3722 16.0633C13.0993 16.5015 12.9546 17.0073 12.9546 17.5235C12.9546 18.0397 13.0993 18.5455 13.3722 18.9836C13.6451 19.4218 14.0353 19.7746 14.4986 20.0022C14.9619 20.2298 15.4797 20.323 15.9933 20.2713C16.5069 20.2195 16.9957 20.0248 17.4042 19.7093C17.4717 19.9418 17.5496 20.1703 17.6366 20.3923ZM32.2332 14.656C32.7528 14.3083 33.3571 14.1082 33.9815 14.0772C34.6059 14.0462 35.227 14.1854 35.7784 14.4799C36.3299 14.7744 36.791 15.2132 37.1125 15.7494C37.434 16.2855 37.6038 16.899 37.6038 17.5241C37.6038 18.1493 37.434 18.7627 37.1125 19.2989C36.791 19.8351 36.3299 20.2738 35.7784 20.5683C35.227 20.8629 34.6059 21.002 33.9815 20.971C33.3571 20.94 32.7528 20.74 32.2332 20.3923C32.3202 20.1703 32.3981 19.9418 32.4657 19.7093C32.8741 20.0243 33.3626 20.2186 33.8758 20.2701C34.389 20.3216 34.9064 20.2283 35.3693 20.0007C35.8322 19.7731 36.222 19.4204 36.4947 18.9826C36.7673 18.5447 36.9118 18.0393 36.9118 17.5235C36.9118 17.0077 36.7673 16.5022 36.4947 16.0644C36.222 15.6265 35.8322 15.2738 35.3693 15.0463C34.9064 14.8187 34.389 14.7254 33.8758 14.7769C33.3626 14.8284 32.8741 15.0226 32.4657 15.3376C32.3981 15.1048 32.3207 14.8776 32.2332 14.656V14.656ZM32.776 17.4436C32.7976 17.0847 32.9581 16.7484 33.2236 16.5059C33.489 16.2633 33.8385 16.1337 34.1978 16.1446C34.5572 16.1554 34.8983 16.3057 35.1486 16.5638C35.399 16.8218 35.5391 17.1672 35.5391 17.5267C35.5391 17.8863 35.399 18.2317 35.1486 18.4897C34.8983 18.7477 34.5572 18.8981 34.1978 18.9089C33.8385 18.9197 33.489 18.7901 33.2236 18.5476C32.9581 18.3051 32.7976 17.9687 32.776 17.6098V17.4436ZM17.0952 17.6124C17.0729 17.971 16.9119 18.3069 16.6463 18.5489C16.3807 18.7909 16.0313 18.92 15.6722 18.9089C15.313 18.8977 14.9723 18.7472 14.7222 18.4892C14.4721 18.2313 14.3323 17.886 14.3323 17.5267C14.3323 17.1674 14.4721 16.8222 14.7222 16.5642C14.9723 16.3062 15.313 16.1557 15.6722 16.1446C16.0313 16.1335 16.3807 16.2626 16.6463 16.5045C16.9119 16.7465 17.0729 17.0824 17.0952 17.441V17.6124ZM27.0539 22.9969C28.0226 23.4705 28.8058 24.2536 29.2794 25.2223H27.0539V22.9943V22.9969ZM29.2794 29.459C28.8052 30.427 28.0222 31.2096 27.0539 31.6832V29.4564L29.2794 29.459ZM22.8172 31.6832C21.849 31.2096 21.066 30.427 20.5918 29.459H22.8172V31.6832V31.6832ZM20.5918 25.2223C21.0654 24.2536 21.8485 23.4705 22.8172 22.9969V25.2223H20.5918ZM27.0539 13.9678C27.3491 14.1438 27.6212 14.3558 27.8641 14.5988C28.1068 14.8416 28.3187 15.1133 28.4952 15.4077H27.0539V13.9652V13.9678ZM28.4952 19.6444C28.1416 20.2369 27.6464 20.7321 27.0539 21.0856V19.6444H28.4952ZM22.8172 21.0792C22.2248 20.7256 21.7295 20.2304 21.376 19.6379H22.8172V21.0792ZM21.376 15.4012C21.5525 15.1068 21.7644 14.8352 22.007 14.5923C22.25 14.3493 22.5221 14.1373 22.8172 13.9613V15.4051L21.376 15.4012Z" fill="#C3A28A"/>
</svg>
